<mxfile host="app.diagrams.net" modified="2023-08-25T05:53:59.234Z" agent="Mozilla/5.0 (Windows NT 10.0; Win64; x64; rv:109.0) Gecko/20100101 Firefox/116.0" etag="mrU4w7hqbkp6HdFV-TP_" version="21.6.9" type="github">
  <diagram name="Page-1" id="R06YQfZPMg1-HGyM-tQL">
    <mxGraphModel dx="1298" dy="501" grid="1" gridSize="10" guides="0" tooltips="1" connect="1" arrows="1" fold="1" page="1" pageScale="1" pageWidth="850" pageHeight="1100" math="0" shadow="0">
      <root>
        <mxCell id="0" />
        <mxCell id="1" parent="0" />
        <mxCell id="cqsNpWvJJc_Cz_3lljYb-4" style="edgeStyle=orthogonalEdgeStyle;rounded=0;orthogonalLoop=1;jettySize=auto;html=1;entryX=0.5;entryY=0;entryDx=0;entryDy=0;" edge="1" parent="1" source="cqsNpWvJJc_Cz_3lljYb-1" target="cqsNpWvJJc_Cz_3lljYb-3">
          <mxGeometry relative="1" as="geometry" />
        </mxCell>
        <mxCell id="cqsNpWvJJc_Cz_3lljYb-1" value="START" style="ellipse;whiteSpace=wrap;html=1;" vertex="1" parent="1">
          <mxGeometry x="350" y="40" width="100" height="60" as="geometry" />
        </mxCell>
        <mxCell id="cqsNpWvJJc_Cz_3lljYb-6" style="edgeStyle=orthogonalEdgeStyle;rounded=0;orthogonalLoop=1;jettySize=auto;html=1;exitX=0.5;exitY=1;exitDx=0;exitDy=0;entryX=0.5;entryY=0;entryDx=0;entryDy=0;" edge="1" parent="1" source="cqsNpWvJJc_Cz_3lljYb-3" target="cqsNpWvJJc_Cz_3lljYb-5">
          <mxGeometry relative="1" as="geometry">
            <mxPoint x="560" y="270" as="targetPoint" />
            <Array as="points" />
          </mxGeometry>
        </mxCell>
        <mxCell id="cqsNpWvJJc_Cz_3lljYb-3" value="Login" style="rhombus;whiteSpace=wrap;html=1;" vertex="1" parent="1">
          <mxGeometry x="350" y="150" width="100" height="100" as="geometry" />
        </mxCell>
        <mxCell id="cqsNpWvJJc_Cz_3lljYb-9" style="edgeStyle=orthogonalEdgeStyle;rounded=0;orthogonalLoop=1;jettySize=auto;html=1;entryX=0.5;entryY=0;entryDx=0;entryDy=0;" edge="1" parent="1" source="cqsNpWvJJc_Cz_3lljYb-5" target="cqsNpWvJJc_Cz_3lljYb-8">
          <mxGeometry relative="1" as="geometry" />
        </mxCell>
        <mxCell id="cqsNpWvJJc_Cz_3lljYb-5" value="If Admin" style="rhombus;whiteSpace=wrap;html=1;" vertex="1" parent="1">
          <mxGeometry x="350" y="280" width="100" height="100" as="geometry" />
        </mxCell>
        <mxCell id="cqsNpWvJJc_Cz_3lljYb-8" value="&lt;div&gt;Check User credentials with&lt;/div&gt;&lt;div&gt;&amp;nbsp;Finger&lt;/div&gt;" style="rhombus;whiteSpace=wrap;html=1;" vertex="1" parent="1">
          <mxGeometry x="340" y="420" width="120" height="110" as="geometry" />
        </mxCell>
      </root>
    </mxGraphModel>
  </diagram>
</mxfile>
